<svg id="Capa_1" enable-background="new 0 0 512 512" height="512" viewBox="0 0 512 512" width="512" xmlns="http://www.w3.org/2000/svg"><path d="m444.5 0h-377c-37.22 0-67.5 30.28-67.5 67.5v377c0 37.22 30.28 67.5 67.5 67.5h377c37.22 0 67.5-30.28 67.5-67.5v-377c0-37.22-30.28-67.5-67.5-67.5zm52.5 444.5c0 28.949-23.551 52.5-52.5 52.5h-377c-28.949 0-52.5-23.551-52.5-52.5v-377c0-28.949 23.551-52.5 52.5-52.5h377c28.949 0 52.5 23.551 52.5 52.5z"/><path d="m211 414.5h90c4.142 0 7.5-3.358 7.5-7.5v-204.5h98.5c4.142 0 7.5-3.358 7.5-7.5v-90c0-4.142-3.358-7.5-7.5-7.5h-302c-4.142 0-7.5 3.358-7.5 7.5v90c0 4.142 3.358 7.5 7.5 7.5h98.5v204.5c0 4.142 3.358 7.5 7.5 7.5zm-98.5-227v-75h287v75h-98.5c-4.142 0-7.5 3.358-7.5 7.5v204.5h-75v-204.5c0-4.142-3.358-7.5-7.5-7.5z"/><path d="m444.5 30h-377c-20.678 0-37.5 16.822-37.5 37.5v173.5c0 4.142 3.358 7.5 7.5 7.5s7.5-3.358 7.5-7.5v-173.5c0-12.407 10.093-22.5 22.5-22.5h377c12.407 0 22.5 10.093 22.5 22.5v377c0 12.407-10.093 22.5-22.5 22.5h-377c-12.407 0-22.5-10.093-22.5-22.5v-173.5c0-4.142-3.358-7.5-7.5-7.5s-7.5 3.358-7.5 7.5v173.5c0 20.678 16.822 37.5 37.5 37.5h377c20.678 0 37.5-16.822 37.5-37.5v-377c0-20.678-16.822-37.5-37.5-37.5z"/></svg>